<?xml version="1.0" encoding="UTF-8"?>
<!DOCTYPE svg PUBLIC "-//W3C//DTD SVG 1.1//EN" "http://www.w3.org/Graphics/SVG/1.1/DTD/svg11.dtd">
<svg xmlns="http://www.w3.org/2000/svg" version="1.1" width="33px" height="30px" style="shape-rendering:geometricPrecision; text-rendering:geometricPrecision; image-rendering:optimizeQuality; fill-rule:evenodd; clip-rule:evenodd" xmlns:xlink="http://www.w3.org/1999/xlink">
<g><path style="opacity:0.897" fill="#f7ab5b" d="M 8.5,-0.5 C 9.83333,-0.5 11.1667,-0.5 12.5,-0.5C 12.5674,0.95875 12.2341,2.29208 11.5,3.5C 10.8333,3.5 10.1667,3.5 9.5,3.5C 8.76589,2.29208 8.43255,0.95875 8.5,-0.5 Z"/></g>
<g><path style="opacity:0.856" fill="#f6a559" d="M 12.5,-0.5 C 13.5,-0.5 14.5,-0.5 15.5,-0.5C 15.5,-0.166667 15.5,0.166667 15.5,0.5C 16.4054,1.9643 16.4054,3.29764 15.5,4.5C 14.2921,3.76589 12.9587,3.43255 11.5,3.5C 12.2341,2.29208 12.5674,0.95875 12.5,-0.5 Z"/></g>
<g><path style="opacity:0.812" fill="#f9b35e" d="M 6.5,0.5 C 6.5,1.83333 6.5,3.16667 6.5,4.5C 6.16667,5.5 5.5,6.16667 4.5,6.5C 4.5,4.5 3.5,3.5 1.5,3.5C 2.65938,1.74973 4.32604,0.749725 6.5,0.5 Z"/></g>
<g><path style="opacity:0.882" fill="#f9af5c" d="M 6.5,-0.5 C 7.16667,-0.5 7.83333,-0.5 8.5,-0.5C 8.43255,0.95875 8.76589,2.29208 9.5,3.5C 8.60895,4.10978 7.60895,4.44312 6.5,4.5C 6.5,3.16667 6.5,1.83333 6.5,0.5C 6.5,0.166667 6.5,-0.166667 6.5,-0.5 Z"/></g>
<g><path style="opacity:0.678" fill="#f59f57" d="M 15.5,0.5 C 18.2923,0.910308 19.2923,2.24364 18.5,4.5C 17.8333,4.5 17.5,4.83333 17.5,5.5C 16.8333,5.5 16.1667,5.5 15.5,5.5C 15.5,5.16667 15.5,4.83333 15.5,4.5C 16.4054,3.29764 16.4054,1.9643 15.5,0.5 Z"/></g>
<g><path style="opacity:0.89" fill="#f9b95f" d="M 1.5,3.5 C 3.5,3.5 4.5,4.5 4.5,6.5C 3.69929,8.04181 3.36596,9.70848 3.5,11.5C 1.9724,12.8021 0.9724,14.4687 0.5,16.5C 0.5,15.8333 0.166667,15.5 -0.5,15.5C -0.5,12.5 -0.5,9.5 -0.5,6.5C 0.40128,5.70951 1.06795,4.70951 1.5,3.5 Z"/></g>
<g><path style="opacity:0.846" fill="#f7a458" d="M 15.5,5.5 C 16.1667,5.5 16.8333,5.5 17.5,5.5C 17.8333,5.5 18.1667,5.5 18.5,5.5C 18.5,6.83333 18.5,8.16667 18.5,9.5C 17.609,10.1098 16.609,10.4431 15.5,10.5C 14.4019,9.60305 14.4019,8.76971 15.5,8C 14.9056,7.53566 14.2389,7.36899 13.5,7.5C 14.1667,6.83333 14.8333,6.16667 15.5,5.5 Z"/></g>
<g><path style="opacity:0.866" fill="#f8aa5a" d="M 18.5,4.5 C 20.099,4.23219 21.4324,4.56552 22.5,5.5C 22.5,6.83333 22.5,8.16667 22.5,9.5C 21.1667,9.5 19.8333,9.5 18.5,9.5C 18.5,8.16667 18.5,6.83333 18.5,5.5C 18.5,5.16667 18.5,4.83333 18.5,4.5 Z"/></g>
<g><path style="opacity:0.846" fill="#f8b15d" d="M 22.5,5.5 C 24.5529,5.40206 26.2196,6.06873 27.5,7.5C 27.0651,9.29671 27.0651,11.2967 27.5,13.5C 26.4613,11.4689 24.7946,10.1355 22.5,9.5C 22.5,8.16667 22.5,6.83333 22.5,5.5 Z"/></g>
<g><path style="opacity:0.807" fill="#f9b75f" d="M 27.5,7.5 C 29.2624,8.26231 30.2624,9.59565 30.5,11.5C 29.6236,11.3691 28.9569,11.7025 28.5,12.5C 29.7914,13.5272 29.7914,14.5272 28.5,15.5C 27.6618,15.1583 27.3284,14.4916 27.5,13.5C 27.0651,11.2967 27.0651,9.29671 27.5,7.5 Z"/></g>
<g><path style="opacity:0.864" fill="#f59e56" d="M 13.5,7.5 C 14.2389,7.36899 14.9056,7.53566 15.5,8C 14.4019,8.76971 14.4019,9.60305 15.5,10.5C 14.1611,12.8733 12.8278,15.2067 11.5,17.5C 11.8016,14.9407 11.4682,12.6074 10.5,10.5C 11.1667,9.16667 12.1667,8.16667 13.5,7.5 Z"/></g>
<g><path style="opacity:0.82" fill="#f49a55" d="M 10.5,10.5 C 11.4682,12.6074 11.8016,14.9407 11.5,17.5C 10.5,17.5 9.5,17.5 8.5,17.5C 8.39387,14.9214 9.06054,12.588 10.5,10.5 Z"/></g>
<g><path style="opacity:0.823" fill="#f59a55" d="M 19.5,18.5 C 19.7947,16.2646 19.4614,14.2646 18.5,12.5C 19.1834,10.8235 20.5168,10.1568 22.5,10.5C 22.9819,13.8306 21.9819,16.4973 19.5,18.5 Z"/></g>
<g><path style="opacity:0.869" fill="#f8b75f" d="M 3.5,11.5 C 3.5,12.1667 3.5,12.8333 3.5,13.5C 3.12419,15.647 3.12419,17.647 3.5,19.5C 2.16667,18.8333 1.16667,17.8333 0.5,16.5C 0.9724,14.4687 1.9724,12.8021 3.5,11.5 Z"/></g>
<g><path style="opacity:0.971" fill="#f9ba60" d="M 30.5,11.5 C 31.1667,12.1667 31.8333,12.8333 32.5,13.5C 32.5,15.5 32.5,17.5 32.5,19.5C 32.1667,19.5 31.8333,19.5 31.5,19.5C 29.8773,20.4908 28.8773,19.8241 28.5,17.5C 28.5,16.8333 28.5,16.1667 28.5,15.5C 29.7914,14.5272 29.7914,13.5272 28.5,12.5C 28.9569,11.7025 29.6236,11.3691 30.5,11.5 Z"/></g>
<g><path style="opacity:0.897" fill="#f59e57" d="M 18.5,12.5 C 19.4614,14.2646 19.7947,16.2646 19.5,18.5C 19.5,19.1667 19.1667,19.5 18.5,19.5C 17.5655,18.4324 17.2322,17.099 17.5,15.5C 17.5569,14.391 17.8902,13.391 18.5,12.5 Z"/></g>
<g><path style="opacity:0.841" fill="#f5a058" d="M 17.5,15.5 C 17.2322,17.099 17.5655,18.4324 18.5,19.5C 18.0269,20.9063 17.0269,21.573 15.5,21.5C 15.5,20.1667 15.5,18.8333 15.5,17.5C 15.8333,16.5 16.5,15.8333 17.5,15.5 Z"/></g>
<g><path style="opacity:0.874" fill="#f9b55e" d="M 3.5,13.5 C 4.40128,14.2905 5.06795,15.2905 5.5,16.5C 5.5,18.1667 5.5,19.8333 5.5,21.5C 4.5,21.1667 3.83333,20.5 3.5,19.5C 3.12419,17.647 3.12419,15.647 3.5,13.5 Z"/></g>
<g><path style="opacity:0.812" fill="#f7b05c" d="M 5.5,16.5 C 6.39105,17.1098 7.39105,17.4431 8.5,17.5C 8.5,18.1667 8.83333,18.5 9.5,18.5C 8.76589,19.7079 8.43255,21.0413 8.5,22.5C 7.39105,22.4431 6.39105,22.1098 5.5,21.5C 5.5,19.8333 5.5,18.1667 5.5,16.5 Z"/></g>
<g><path style="opacity:0.829" fill="#f7a558" d="M 15.5,17.5 C 15.5,18.8333 15.5,20.1667 15.5,21.5C 15.5,21.8333 15.5,22.1667 15.5,22.5C 15.1667,22.5 14.8333,22.5 14.5,22.5C 13.5,22.5 12.5,22.5 11.5,22.5C 12.2341,21.2921 12.5674,19.9587 12.5,18.5C 13.391,17.8902 14.391,17.5569 15.5,17.5 Z"/></g>
<g><path style="opacity:0.861" fill="#f7ab5b" d="M 9.5,18.5 C 10.5,18.5 11.5,18.5 12.5,18.5C 12.5674,19.9587 12.2341,21.2921 11.5,22.5C 10.5,22.5 9.5,22.5 8.5,22.5C 8.43255,21.0413 8.76589,19.7079 9.5,18.5 Z"/></g>
<g><path style="opacity:0.803" fill="#fab75f" d="M 28.5,17.5 C 28.8773,19.8241 29.8773,20.4908 31.5,19.5C 31.539,22.089 30.539,24.089 28.5,25.5C 27.6554,24.3285 26.9887,22.9952 26.5,21.5C 26.9887,20.0048 27.6554,18.6715 28.5,17.5 Z"/></g>
<g><path style="opacity:0.703" fill="#f6a057" d="M 14.5,22.5 C 14.8333,22.5 15.1667,22.5 15.5,22.5C 16.7095,22.9321 17.7095,23.5987 18.5,24.5C 15.7524,24.4017 15.0857,25.4017 16.5,27.5C 12.2888,26.9988 11.6221,25.3321 14.5,22.5 Z"/></g>
<g><path style="opacity:0.806" fill="#f9b15c" d="M 26.5,21.5 C 26.9887,22.9952 27.6554,24.3285 28.5,25.5C 26.8185,27.0075 24.8185,28.0075 22.5,28.5C 22.8346,26.9974 22.8346,25.664 22.5,24.5C 23.795,23.5116 25.1283,22.5116 26.5,21.5 Z"/></g>
<g><path style="opacity:0.87" fill="#f6a559" d="M 18.5,24.5 C 18.8333,24.5 19.1667,24.5 19.5,24.5C 19.5,25.8333 19.5,27.1667 19.5,28.5C 18.209,28.7373 17.209,28.404 16.5,27.5C 15.0857,25.4017 15.7524,24.4017 18.5,24.5 Z"/></g>
<g><path style="opacity:0.869" fill="#f8ab5b" d="M 19.5,24.5 C 20.5,24.5 21.5,24.5 22.5,24.5C 22.8346,25.664 22.8346,26.9974 22.5,28.5C 21.5,28.5 20.5,28.5 19.5,28.5C 19.5,27.1667 19.5,25.8333 19.5,24.5 Z"/></g>
</svg>
